<svg width="35" height="35" viewBox="0 0 35 35" fill="none" xmlns="http://www.w3.org/2000/svg">
<path d="M29.1899 4.81705L29.1587 4.70683L29.0601 4.64954C26.1036 2.94324 20.4582 2.17529 17.3937 2.17529C14.3277 2.17529 8.6809 2.94324 5.72732 4.64954L5.6287 4.70683L5.59752 4.81705C2.04351 17.3362 6.07975 26.9323 17.2675 32.5689L17.3937 32.632L17.5199 32.5689C28.7185 26.9272 32.7548 17.3311 29.1899 4.81705Z" fill="#9C824A"/>
<path d="M9.78125 9.99552C9.95601 9.99552 10.0314 9.99552 10.1808 9.96724C10.1446 9.81931 10.1076 9.61481 10.0314 9.29284C9.91903 9.61481 9.85667 9.79102 9.78125 9.99552ZM17.8494 9.58725C17.9255 9.58725 17.9872 9.5568 17.9872 9.4386C17.9872 9.41032 17.9756 9.35158 17.9509 9.26528C17.9001 9.05789 17.7877 9.08907 17.737 9.08907C17.5876 9.08907 17.4389 9.26528 17.4389 9.67427C17.4389 9.70473 17.4389 9.73301 17.4389 9.76419C17.6384 9.67427 17.8494 9.61553 17.8494 9.61553V9.58725ZM17.613 10.5242C17.7 10.7287 17.8494 10.8737 18.0996 10.9049C18.4121 10.9049 18.5999 10.7562 18.8646 10.5242L19.188 10.9324V10.4342C19.188 10.4342 19.1764 10.171 19.1764 9.93606C18.8878 10.0543 17.8748 10.435 17.613 10.5242Z" fill="#023474"/>
<path d="M28.4308 5.40541L28.3923 5.27271L28.2654 5.22122C23.4772 3.27852 19.9355 3.02979 17.3851 3.02979C14.8333 3.02979 11.2895 3.27924 6.50122 5.22122L6.37432 5.27343L6.33588 5.40541C2.98854 17.211 6.86815 26.5388 17.2611 31.6693L17.3851 31.7302L17.5091 31.6693C27.9007 26.5388 31.7796 17.2117 28.4308 5.40541ZM23.9768 11.7245C23.9768 11.7245 23.9036 11.607 23.9036 11.5787C23.7288 11.6962 23.5011 11.8107 23.2031 11.8107C22.702 11.8107 22.3257 11.6063 22.1509 11.2255C22.1625 11.3126 22.2017 11.6063 22.2125 11.7237H20.8253C20.8761 11.4018 20.8761 10.8456 20.8623 10.4337L20.8253 9.5555C20.8115 9.32345 20.6984 9.32345 20.6368 9.35101C20.5751 9.35101 20.5244 9.35101 20.4736 9.40974C20.4373 9.43802 20.412 9.52722 20.412 9.58596C20.412 9.58596 20.4373 10.4337 20.4373 10.4054C20.4482 10.8137 20.4881 11.3423 20.5751 11.723H19.135C19.1487 11.6331 19.1741 11.3118 19.1741 11.1944C18.8224 11.5772 18.4228 11.7513 17.8855 11.7506C17.2836 11.7506 16.6701 11.4873 16.3576 10.9028C16.1828 11.4598 15.5193 11.7506 14.8949 11.7506C14.5179 11.7506 14.0929 11.6635 13.7557 11.4873L13.7811 10.2589C14.206 10.7259 14.594 10.9021 14.8812 10.9021C15.0189 10.9021 15.1712 10.8717 15.1821 10.7846C15.1821 10.7259 15.1821 10.6984 14.9936 10.5809L14.4562 10.3147C14.1553 10.169 13.8174 9.93403 13.8319 9.40829C13.7303 9.40829 13.5926 9.43657 13.4693 9.58451C13.3061 9.73026 13.23 9.99277 13.2046 10.3735C13.1821 10.6984 13.1567 11.2828 13.2184 11.7223H10.4896L10.4671 11.5178C10.4533 11.3416 10.4026 11.0783 10.3518 10.8717C10.127 10.9021 9.64044 10.9021 9.4519 10.9021C9.36488 11.1654 9.27786 11.5178 9.25248 11.7216H7.88773C7.88773 11.7216 7.98925 11.5453 8.03928 11.4279C8.42724 10.5802 8.82681 9.37711 9.11397 8.58814C9.27713 8.08995 9.27713 7.855 9.26553 7.73752C9.25175 7.6505 9.22637 7.56131 9.21477 7.53303L10.9646 7.2698L11.5781 10.0232C11.668 10.3728 11.7782 10.8122 11.879 11.1371C11.9044 10.9021 11.9153 10.6389 11.9298 10.4039V10.3452L11.9551 9.8753C11.9805 9.43585 11.9668 8.93839 11.879 8.58814L13.1169 8.5294C13.1422 8.58814 13.1676 8.73389 13.1814 8.76435C13.581 8.38364 13.9044 8.38364 14.2053 8.43948L14.1937 8.70561C14.267 8.64687 14.3431 8.58814 14.4301 8.5294C14.7564 8.35318 15.1306 8.3249 15.3308 8.3249C15.7079 8.3249 15.9696 8.38074 16.1582 8.47066L16.1328 9.40757C15.8826 9.26181 15.5701 9.14433 15.3453 9.14433C15.1821 9.14433 15.0581 9.20307 15.0443 9.26181C15.0443 9.29009 15.0581 9.31765 15.1821 9.37711H15.2075L15.734 9.64252C15.9087 9.70126 16.0574 9.81583 16.1698 9.93331C16.1836 9.46558 16.3329 9.05514 16.6339 8.76363C16.921 8.46994 17.3598 8.29372 17.7847 8.29372C18.0973 8.29372 18.3982 8.38074 18.6346 8.52867C18.9355 8.76363 19.0987 9.0856 19.1611 9.37639C19.1495 9.17189 19.074 8.58741 19.0233 8.38002L20.1741 8.43875L20.2249 8.55623C20.2387 8.58669 20.2503 8.61497 20.264 8.64615C20.4888 8.49822 20.7397 8.4112 21.0124 8.4112C21.6259 8.4112 22.0283 8.81946 22.0508 9.43585L22.09 10.4039V10.4322C22.2024 10.1414 22.4526 9.8753 22.8521 9.69908C23.1168 9.58451 23.3532 9.52577 23.5664 9.49459C23.5156 9.37711 23.4032 9.31837 23.2256 9.31837C23.0008 9.31837 22.8151 9.37711 22.5642 9.52577L22.2633 9.69908L22.1872 8.64688C22.4772 8.55696 22.9522 8.5294 23.1378 8.5294C24.2662 8.5294 24.7782 8.93766 24.8543 9.8753L24.9022 10.4627C24.9413 10.9021 24.9892 11.1929 25.0907 11.4279L25.1415 11.5453V11.5171C25.1415 11.1371 25.1161 10.7839 25.0791 10.462L24.8768 8.61569C24.8289 8.23498 24.7528 7.67879 24.6404 7.29808L25.9652 7.53303L26.3285 10.4032C26.3677 10.8115 26.4409 11.3401 26.5533 11.7208H23.9768V11.7245Z" fill="#023474"/>
<path d="M23.6925 10.4927C23.6925 10.4927 23.6787 10.3752 23.6671 10.2295C23.29 10.347 23.2538 10.5232 23.2422 10.6407C23.2538 10.7552 23.3038 10.9314 23.5402 10.9314C23.6048 10.9032 23.6671 10.9032 23.7143 10.8727C23.7034 10.7857 23.7034 10.6994 23.6918 10.6095L23.6925 10.4927Z" fill="#023474"/>
<path d="M26.7449 4.7558L26.7087 4.61294L26.5709 4.56146C23.9552 3.57742 20.8777 3.04587 17.658 3.01977L17.1293 3.01904C13.9074 3.04515 10.8299 3.57814 8.21347 4.56146L8.07569 4.61222L8.03944 4.75508C4.88789 17.2416 7.77113 25.7651 17.1126 31.5642L17.3911 31.7296L17.6746 31.5642C27.0147 25.7666 29.8965 17.2431 26.7449 4.7558ZM23.9828 11.7239C23.9828 11.7239 23.9785 11.7166 23.9712 11.705C23.9509 11.6709 23.9096 11.5991 23.9096 11.5781C23.7348 11.6956 23.5071 11.8102 23.2091 11.8102C22.8958 11.8102 22.6398 11.7217 22.4426 11.5687C22.3244 11.4773 22.2221 11.3678 22.1569 11.225C22.1685 11.312 22.2076 11.6057 22.2185 11.7231H20.8313C20.8566 11.5622 20.869 11.3424 20.874 11.1118C20.8762 10.9965 20.8762 10.8783 20.8755 10.7638C20.8748 10.7057 20.8733 10.6543 20.8719 10.5984C20.8704 10.5426 20.8697 10.4846 20.8682 10.4331L20.8313 9.55491C20.8175 9.32286 20.7044 9.32286 20.6427 9.35041C20.5811 9.35041 20.5303 9.35041 20.4796 9.40915C20.4433 9.43743 20.4179 9.52663 20.4179 9.58537C20.4179 9.58537 20.4281 9.91676 20.4353 10.1582C20.4368 10.2068 20.4382 10.2511 20.4397 10.2895C20.4418 10.3649 20.4433 10.4128 20.4433 10.4055C20.4447 10.4563 20.4477 10.5136 20.4506 10.568C20.4665 10.9479 20.5049 11.3903 20.5818 11.7231H19.1416C19.1453 11.7007 19.1496 11.6637 19.154 11.6194C19.167 11.4853 19.1815 11.283 19.1815 11.1945C18.8298 11.5774 18.4303 11.7514 17.8929 11.7507C17.3911 11.7507 16.8922 11.5549 16.5557 11.1553C16.4883 11.0756 16.4172 11.0002 16.365 10.9023C16.3324 11.0067 16.278 11.0988 16.2142 11.1843C15.9386 11.5556 15.4092 11.7507 14.9024 11.7507C14.5253 11.7507 14.1003 11.6637 13.7631 11.4875L13.7885 10.259C14.2134 10.726 14.6014 10.9023 14.8886 10.9023C15.0264 10.9023 15.1786 10.8718 15.1895 10.7848C15.1895 10.755 15.1895 10.734 15.1663 10.705C15.1424 10.676 15.0952 10.6397 15.001 10.581L14.4636 10.3149C14.1881 10.1814 13.8937 9.96172 13.8552 9.523C13.8516 9.48312 13.8378 9.45266 13.8385 9.40843C13.737 9.40843 13.5992 9.43671 13.476 9.58464C13.394 9.65716 13.3346 9.7594 13.2918 9.89066C13.249 10.0219 13.2236 10.1829 13.2113 10.3736C13.1997 10.5361 13.1881 10.7638 13.1866 11.0052C13.1852 11.2467 13.1946 11.5034 13.2251 11.7224H10.4963L10.4738 11.5179C10.4702 11.4737 10.4593 11.4149 10.452 11.362C10.4397 11.2743 10.4259 11.1901 10.4064 11.0944C10.3911 11.0183 10.3759 10.9407 10.3585 10.8711C10.1337 10.9015 9.64712 10.9015 9.45857 10.9015C9.39331 11.0988 9.32805 11.3461 9.28816 11.544C9.27511 11.61 9.26496 11.6702 9.25843 11.7217H7.89368C7.89368 11.7217 7.90021 11.7108 7.91036 11.692C7.94154 11.6368 8.00753 11.5157 8.04596 11.4273C8.24031 11.0038 8.43682 10.4904 8.62102 9.98565C8.80521 9.48022 8.97707 8.98203 9.12065 8.58755C9.2432 8.21409 9.27366 7.98856 9.27656 7.84933C9.27728 7.80292 9.27511 7.76594 9.27293 7.73693C9.26931 7.71518 9.26423 7.6956 9.25988 7.67529C9.2461 7.61221 9.23087 7.55419 9.22217 7.53316L10.972 7.26993L11.3396 8.92184L11.5847 10.0234C11.6747 10.3729 11.7849 10.8123 11.8857 11.1372C11.8987 11.0197 11.9074 10.895 11.9154 10.771C11.9234 10.6463 11.9292 10.5215 11.9364 10.4041V10.3453L11.9618 9.87543C11.9684 9.76593 11.972 9.65208 11.9727 9.53823C11.9742 9.31053 11.964 9.08138 11.9379 8.87543C11.9248 8.77246 11.9074 8.67602 11.8857 8.58827L13.1235 8.52953C13.1489 8.58827 13.1743 8.73403 13.1881 8.76449C13.3882 8.57377 13.5688 8.47877 13.737 8.43816C13.9053 8.39755 14.0619 8.41133 14.212 8.43961L14.2004 8.70575C14.2736 8.64701 14.3498 8.58827 14.4368 8.52953C14.7631 8.35332 15.1373 8.32504 15.3374 8.32504C15.7145 8.32504 15.9763 8.38088 16.1649 8.4708L16.1395 9.4077C15.8893 9.26194 15.5767 9.14447 15.352 9.14447C15.1888 9.14447 15.0648 9.20321 15.051 9.26195C15.051 9.28152 15.0728 9.30545 15.1199 9.33591C15.1402 9.34896 15.1518 9.35984 15.1888 9.37724H15.2142L15.5296 9.53678L15.7399 9.64265C15.9147 9.70139 16.0633 9.81597 16.1757 9.93344C16.183 9.69994 16.2236 9.48022 16.3005 9.28297C16.3773 9.08573 16.4897 8.90952 16.6398 8.76449C16.927 8.4708 17.3657 8.29458 17.7907 8.29458C18.1032 8.29458 18.4042 8.3816 18.6406 8.52953C18.716 8.58827 18.7827 8.65208 18.8407 8.72025C19.0162 8.9233 19.1199 9.15897 19.1663 9.37724C19.1576 9.22424 19.1126 8.85731 19.0698 8.59552C19.0553 8.5085 19.0408 8.43309 19.0285 8.3816L20.1793 8.44034L20.2301 8.55781C20.2439 8.58827 20.2555 8.61655 20.2693 8.64773C20.4941 8.4998 20.745 8.41278 21.0176 8.41278C21.4266 8.41278 21.7283 8.6064 21.8994 8.90952C21.985 9.06108 22.0481 9.23149 22.0553 9.43743L22.0945 10.4055V10.4338C22.2069 10.143 22.4571 9.87688 22.8566 9.70067C23.1213 9.58609 23.357 9.52735 23.5709 9.49617C23.5202 9.3787 23.4078 9.31996 23.2308 9.31996C23.006 9.31996 22.8204 9.3787 22.5695 9.52735L22.2685 9.70067L22.225 9.09951L22.1924 8.64846C22.4825 8.55854 22.9574 8.53098 23.1431 8.53098C24.0365 8.53098 24.5383 8.79204 24.7486 9.36419C24.8037 9.51503 24.8436 9.68181 24.8595 9.87761L24.9074 10.465C24.9371 10.7942 24.9712 11.04 25.0292 11.2424C25.0488 11.3091 25.0705 11.3714 25.0959 11.4302L25.1467 11.5476V11.5194C25.1467 11.2025 25.1264 10.9095 25.0996 10.6332C25.0945 10.5781 25.0909 10.5186 25.0843 10.465L24.9828 9.54186L24.8813 8.61873C24.8457 8.33301 24.7935 7.94868 24.7225 7.61366C24.6985 7.50198 24.6732 7.39611 24.6449 7.30039L25.9697 7.53534L26.2119 9.44904L26.333 10.4055C26.3381 10.4563 26.3454 10.5136 26.3512 10.568C26.3932 10.9479 26.46 11.3903 26.5586 11.7231L23.9828 11.7239Z" fill="white"/>
<path d="M10.0586 15.2505H10.0419H9.96864V15.2635C9.59881 15.3121 9.28772 15.6595 9.14849 16.1461C9.10715 16.1359 9.06799 16.1185 9.02376 16.1185C8.69163 16.1185 8.42188 16.4151 8.42188 16.7842C8.42188 17.1533 8.69163 17.4499 9.02376 17.4499C9.08322 17.4499 9.13761 17.4303 9.19199 17.4122C9.34645 17.835 9.63217 18.1279 9.96937 18.17V18.1823H12.535C12.7373 17.2084 13.2355 16.1736 14.4791 15.2505H10.0586Z" fill="#9C824A"/>
<path d="M17.3464 23.8646C14.7082 23.8646 12.5625 21.729 12.5625 19.1047C12.5625 16.4803 14.7082 14.3447 17.3464 14.3447C19.9852 14.3447 22.1324 16.4803 22.1324 19.1047C22.1324 21.729 19.9845 23.8646 17.3464 23.8646Z" fill="#9C824A"/>
<path d="M17.3426 14.4347C19.9364 14.4347 22.038 16.5246 22.038 19.104C22.038 21.6841 19.9364 23.7733 17.3426 23.7733C14.7516 23.7733 12.65 21.6834 12.65 19.104C12.65 16.5275 14.7516 14.4347 17.3426 14.4347ZM17.3426 14.2534C14.6551 14.2534 12.4688 16.4296 12.4688 19.104C12.4688 21.7784 14.6551 23.9546 17.3426 23.9546C20.0314 23.9546 22.2193 21.7784 22.2193 19.104C22.2193 16.4296 20.0314 14.2534 17.3426 14.2534Z" fill="white"/>
<path d="M21.2628 19.1482C21.2628 21.2896 19.518 23.0249 17.3643 23.0249C15.2135 23.0249 13.4688 21.2896 13.4688 19.1482C13.4688 17.0068 15.2135 15.2715 17.3643 15.2715C19.518 15.2715 21.2628 17.0068 21.2628 19.1482Z" fill="white"/>
<path d="M21.0156 19.1052C21.0156 21.1139 19.3782 22.7397 17.3579 22.7397C15.3405 22.7397 13.7031 21.1139 13.7031 19.1052C13.7031 17.0965 15.3405 15.4707 17.3579 15.4707C19.3782 15.4707 21.0156 17.0958 21.0156 19.1052Z" fill="#9C824A"/>
<path d="M16.8654 20.435C16.7058 20.3683 16.5601 20.2769 16.4042 20.1471L16.3353 20.2305L16.2773 20.1392L14.3672 21.3734L14.4462 21.4698C15.0728 22.2334 15.8661 22.6808 16.8045 22.8012L16.9285 22.8172L16.9343 20.5373L16.935 20.4633L16.8654 20.435Z" fill="#EF0107"/>
<path d="M18.4148 20.1492L18.3568 20.2399L18.2894 20.155C18.1363 20.2761 17.9993 20.3718 17.8274 20.4415L17.7578 20.4697L17.7614 22.8251L17.8854 22.8091C18.8238 22.6887 19.6171 22.2406 20.2437 21.477L20.3227 21.3813L18.4148 20.1492ZM18.8506 19.3385H18.8448L20.7049 20.5357C20.8876 20.0847 21.0174 19.6148 21 19.0811L18.8506 19.3385Z" fill="#DB0007"/>
<path d="M18.8516 19.3281C18.8603 19.2948 18.8574 19.2636 18.8711 19.1657L20.9922 18.8916C21.0009 18.9895 20.9951 19.0258 20.9922 19.0707L18.8516 19.3281Z" fill="white"/>
<path d="M20.3203 15.2202L29.6016 15.2289L29.247 17.3805L22.0447 17.7329C21.7605 16.664 21.1107 15.8837 20.3203 15.2202Z" fill="#9C824A"/>
<path d="M21.9922 17.5522H24.5549C24.4708 17.843 24.4113 18.1092 24.0342 18.2404C23.4353 18.4529 22.2279 18.6211 22.2279 18.6211C22.1778 18.2716 22.1046 17.9163 21.9922 17.5522Z" fill="#9C824A"/>
<path d="M15.9477 8.61855C15.8237 8.59026 15.6352 8.53153 15.3343 8.53153C15.0979 8.53153 14.7853 8.59026 14.5467 8.70774C14.2712 8.88395 14.071 9.11601 14.0601 9.38214C14.0348 9.7904 14.2487 9.96662 14.5612 10.1124C14.7723 10.2299 14.9746 10.3473 15.0986 10.4061C15.2617 10.4931 15.4111 10.5823 15.3995 10.7868C15.3857 10.9913 15.1972 11.1392 14.8847 11.1392C14.6229 11.1392 14.2487 10.963 13.984 10.728L13.9724 11.3437C14.1972 11.4612 14.5605 11.5199 14.8977 11.5199C15.4713 11.5199 16.1863 11.2567 16.1972 10.6106C16.211 10.1124 15.86 9.93616 15.649 9.82159C15.4351 9.73239 15.2211 9.61492 15.1232 9.58663C15.0217 9.5279 14.8223 9.46916 14.8361 9.23421C14.8585 9.02971 15.0979 8.94052 15.348 8.94052C15.5591 8.94052 15.773 8.99925 15.9361 9.08845M10.8078 7.53516L9.48004 7.71137C9.50542 7.88758 9.45466 8.23711 9.31687 8.649C9.04421 9.43798 8.59389 10.7556 8.24219 11.5199H9.06959C9.11746 11.2545 9.17909 11.0217 9.306 10.7005L10.533 10.67C10.5808 10.905 10.6707 11.2857 10.6824 11.5206H11.7962C11.6584 11.1958 11.4837 10.5243 11.3713 10.0544L10.8078 7.53516ZM9.47931 10.1994L10.0812 8.47279L10.4445 10.1711M13.984 8.61855L13.9586 9.20592C13.7592 9.17547 13.5083 9.23421 13.3089 9.43798C13.1341 9.61419 13.0217 9.87742 12.9963 10.3473C12.971 10.728 12.9594 11.1675 12.9826 11.5199H12.0457C12.1073 11.1675 12.1327 10.7585 12.1443 10.3756L12.1697 9.9086C12.195 9.5279 12.195 9.14719 12.1334 8.79476L12.9608 8.76648C12.9978 8.88395 13.0224 9.08845 13.0087 9.29222C13.3705 8.73602 13.7222 8.61855 13.984 8.61855ZM25.7831 7.7121L24.9303 7.56416C25.0173 7.94777 25.0427 8.21028 25.0935 8.59099L25.2936 10.4351C25.3328 10.8158 25.3697 11.1682 25.3581 11.5206H26.2834C26.1935 11.1682 26.1565 10.8158 26.1203 10.4351M21.9651 11.5199C21.9173 11.1675 21.8919 10.8151 21.8781 10.4343L21.8418 9.46916C21.8165 8.94052 21.5155 8.64973 21.0144 8.64973C20.7418 8.64973 20.4155 8.73675 20.1392 9.08917C20.1276 8.99998 20.0884 8.7672 20.0376 8.64973L19.2893 8.61927C19.3509 8.9717 19.3763 9.32123 19.3879 9.70193L19.4017 10.4351C19.4133 10.8158 19.4017 11.1682 19.3763 11.5206H20.3132C20.2653 11.1682 20.24 10.8158 20.2262 10.4351L20.2008 9.61564C20.1892 9.32195 20.4147 9.11746 20.6395 9.11746C20.9013 9.11746 21.0275 9.29367 21.0391 9.5569L21.0782 10.4351C21.0898 10.8158 21.0898 11.1682 21.0645 11.5206M24.894 11.5199C24.7816 11.2262 24.72 10.8738 24.6946 10.4931L24.6439 9.9086C24.5931 9.20665 24.2951 8.73602 23.1413 8.73602C22.9419 8.73602 22.6547 8.76648 22.4183 8.82304L22.4546 9.35168C22.691 9.20593 22.9303 9.08845 23.2312 9.08845C23.5438 9.08845 23.8048 9.23421 23.8302 9.67293C23.5293 9.70338 23.2537 9.75995 22.9412 9.90788C22.5924 10.0536 22.2291 10.3473 22.2661 10.8143C22.3023 11.343 22.7048 11.5779 23.2059 11.5779C23.5938 11.5779 23.8556 11.4017 24.005 11.2255C24.0304 11.343 24.0695 11.43 24.1065 11.5192L24.894 11.5199ZM23.5293 11.1392C23.2537 11.1392 23.0289 10.9913 23.0173 10.6693C23.0173 10.3473 23.2167 10.0848 23.8556 9.9949L23.8926 10.4931C23.9064 10.6693 23.9064 10.7868 23.9318 10.9325C23.8418 11.05 23.6924 11.1087 23.5293 11.1392ZM18.5134 8.70774C18.2994 8.55981 18.0493 8.50034 17.7875 8.50034C17.174 8.50034 16.3611 8.93979 16.3865 10.0529C16.3981 11.1943 17.2755 11.5467 17.889 11.5467C18.4263 11.5467 18.7527 11.3422 19.0144 11.0797L18.8259 10.8136C18.6881 10.9311 18.4633 11.1073 18.1 11.1073C17.7121 11.079 17.464 10.8136 17.3263 10.4053L19.0253 9.78968C18.9746 9.23421 18.7751 8.91224 18.5134 8.70774ZM17.9253 9.7904L17.2501 10.0536C17.2363 9.93616 17.2247 9.81869 17.2247 9.67293C17.2247 8.99853 17.5989 8.88105 17.7251 8.88105C17.9253 8.85277 18.0993 8.97025 18.1638 9.20592C18.2378 9.46916 18.2124 9.70411 17.9253 9.7904Z" fill="white"/>
<path d="M17.9526 9.26578C17.978 9.3528 17.9889 9.41154 17.9889 9.43909C17.9889 9.55657 17.9272 9.58775 17.8511 9.58775V9.61603C17.8511 9.61603 17.6401 9.67477 17.4407 9.76469C17.4407 9.73423 17.4407 9.70595 17.4407 9.67477C17.4407 9.2665 17.59 9.08956 17.7387 9.08956C17.7895 9.08956 17.9019 9.05838 17.9526 9.26578ZM17.395 14.1831C18.4095 14.1932 19.3507 14.5029 20.1317 15.0323L27.355 15.0402C27.5189 11.8756 27.1273 8.38181 26.168 4.53338L26.1303 4.38473L25.9859 4.33469C23.5255 3.48408 20.4755 3.01562 17.3979 3.01562L17.3964 8.35135C17.5262 8.31945 17.6575 8.29696 17.7895 8.29696C18.102 8.29696 18.4029 8.38398 18.6394 8.53192C18.9403 8.76687 19.1035 9.08884 19.1658 9.37963C19.1542 9.17513 19.0788 8.59065 19.028 8.38326L20.1789 8.442L20.2296 8.55947C20.2434 8.58993 20.255 8.61821 20.2688 8.64939C20.4936 8.50146 20.7445 8.41444 21.0171 8.41444C21.6306 8.41444 22.0331 8.82271 22.0556 9.43909L22.0947 10.4072V10.4355C22.2071 10.1447 22.4573 9.87854 22.8569 9.70233C23.1216 9.58775 23.358 9.52901 23.5712 9.49783C23.5204 9.38035 23.408 9.32162 23.2303 9.32162C23.0055 9.32162 22.8199 9.38035 22.569 9.52901L22.2681 9.70233L22.1919 8.65012C22.482 8.5602 22.957 8.53264 23.1426 8.53264C24.2709 8.53264 24.7829 8.94091 24.859 9.87854L24.9069 10.4659C24.9461 10.9054 24.9939 11.1962 25.0955 11.4311L25.1462 11.5486V11.5203C25.1462 11.1403 25.1208 10.7872 25.0838 10.4652L24.8815 8.61894C24.8337 8.23823 24.7575 7.68203 24.6451 7.30132L25.97 7.53627L26.3333 10.4065C26.3725 10.8147 26.4457 11.3434 26.5581 11.7241H23.9809C23.9809 11.7241 23.9076 11.6066 23.9076 11.5783C23.7329 11.6958 23.5052 11.8104 23.2071 11.8104C22.706 11.8104 22.3297 11.6059 22.1549 11.2252C22.1665 11.3122 22.2057 11.6059 22.2166 11.7233H20.8293C20.8801 11.4014 20.8801 10.8452 20.8663 10.4333L20.8293 9.55512C20.8156 9.32307 20.7024 9.32307 20.6408 9.35062C20.5792 9.35062 20.5284 9.35062 20.4776 9.40936C20.4414 9.43764 20.416 9.52684 20.416 9.58557C20.416 9.58557 20.4414 10.4333 20.4414 10.405C20.4523 10.8133 20.4921 11.3419 20.5792 11.7226H19.139C19.1528 11.6327 19.1781 11.3115 19.1781 11.194C18.8264 11.5769 18.4269 11.7509 17.8895 11.7502C17.7227 11.7502 17.5567 11.7248 17.3943 11.6827L17.395 14.1831ZM18.102 10.9054C18.4146 10.9054 18.6024 10.7567 18.8671 10.5247L19.1905 10.9329V10.4347C19.1905 10.4347 19.1789 10.1715 19.1789 9.93655C18.8888 10.054 17.8765 10.4347 17.6147 10.5239C17.7024 10.7292 17.8511 10.8749 18.102 10.9054ZM24.6988 17.8125C24.619 18.0446 24.4972 18.2534 24.2042 18.3622C23.627 18.5776 22.4979 18.7842 22.2855 18.8219C22.2913 18.9162 22.3 19.0105 22.3 19.1069C22.3 21.8132 20.1085 24.0061 17.3928 24.0315L17.3906 31.732C22.8815 28.2729 26.0904 23.6348 27.0664 17.6972L24.6988 17.8125ZM23.6582 10.231C23.2811 10.3484 23.2448 10.5247 23.2332 10.6421C23.2448 10.7567 23.2949 10.9329 23.5313 10.9329C23.5958 10.9046 23.6582 10.9046 23.7053 10.8742C23.6944 10.7872 23.6944 10.7009 23.6828 10.6109V10.4942C23.6828 10.4942 23.6691 10.3767 23.6582 10.231Z" fill="#DB0007"/>
<path d="M13.3479 22.013C12.0934 22.8694 10.3458 23.4648 8.34577 23.7563L7.9375 23.1406C9.65105 22.5025 11.3051 21.5511 12.588 20.2139C12.783 21.0696 13.0782 21.6381 13.3479 22.013Z" fill="#9C824A"/>
<path d="M13.4625 22.151L13.4466 22.1619C12.4676 22.8298 11.1855 23.3468 9.69531 23.6862C11.3559 26.8602 13.9136 29.5339 17.398 31.7297L17.3987 24.0292C17.3813 24.0292 17.3646 24.0314 17.3472 24.0314C15.7707 24.0321 14.3704 23.2939 13.4625 22.151ZM10.1848 9.96688L10.0354 9.29248L9.78523 9.99516C9.78523 9.99516 10.0637 10.0118 10.1848 9.96688Z" fill="#EF0107"/>
<path d="M15.3537 9.14758C15.1905 9.14758 15.0665 9.20632 15.0527 9.26505C15.0527 9.29333 15.0665 9.32089 15.1905 9.38035H15.2159L15.7424 9.64576C15.9171 9.7045 16.0658 9.81908 16.1782 9.93655C16.192 9.46882 16.3413 9.05838 16.6423 8.76687C16.8395 8.56527 17.1093 8.42459 17.3957 8.3528L17.3965 3.01562C14.3174 3.01562 11.2681 3.48408 8.81129 4.33469L8.66698 4.38473L8.63 4.53338C6.84901 11.6755 6.99766 17.6087 9.08902 22.4477C9.50962 22.2476 9.90773 22.0308 10.2863 21.7994C10.3762 21.7436 10.4654 21.6885 10.5546 21.6298C10.8758 21.4216 11.1862 21.2055 11.4748 20.9742C11.4871 20.9648 11.4995 20.9568 11.5111 20.9474C11.8461 20.6762 12.1594 20.3897 12.4487 20.0881L12.4828 20.0525C12.4226 19.7458 12.3878 19.4303 12.3878 19.1055C12.3878 18.8524 12.4139 18.6066 12.4516 18.3636H9.97372L9.79243 18.3513V18.3143C9.50817 18.2222 9.26161 17.9829 9.09845 17.6421C9.0767 17.6414 9.05857 17.632 9.03754 17.6298C9.03464 17.6298 9.03174 17.6305 9.02884 17.6305C8.98533 17.6305 8.94762 17.6109 8.90628 17.6037C8.86568 17.5928 8.82144 17.5928 8.78301 17.5768C8.47264 17.4644 8.24566 17.1562 8.24566 16.7835C8.24566 16.3158 8.59737 15.9365 9.02884 15.9365C9.03029 15.9365 9.03101 15.9365 9.03246 15.9365C9.15937 15.603 9.36531 15.3513 9.61041 15.2085C9.64522 15.1867 9.68148 15.1715 9.71774 15.1563C9.74312 15.1454 9.76705 15.128 9.79315 15.1193L9.97444 15.0692H10.0644H14.4842H14.5103C15.3138 14.5101 16.2884 14.1787 17.3421 14.1787C17.3602 14.1787 17.3769 14.1824 17.3943 14.1824V11.6835C16.9737 11.574 16.5908 11.3252 16.3653 10.9039C16.1905 11.4608 15.527 11.7516 14.9026 11.7516C14.5255 11.7516 14.1006 11.6646 13.7634 11.4884L13.7888 10.26C14.2137 10.727 14.6017 10.9032 14.8889 10.9032C15.0266 10.9032 15.1789 10.8727 15.1898 10.7857C15.1898 10.727 15.1898 10.6994 15.0013 10.5819L14.4639 10.3158C14.163 10.1701 13.825 9.9351 13.8395 9.40936C13.738 9.40936 13.6002 9.43764 13.477 9.58557C13.3138 9.73133 13.2377 9.99384 13.2123 10.3745C13.1898 10.6994 13.1644 11.2839 13.2261 11.7233H10.4973L10.4748 11.5189C10.461 11.3426 10.4103 11.0794 10.3595 10.8727C10.1347 10.9032 9.64812 10.9032 9.45958 10.9032C9.37256 11.1664 9.28554 11.5189 9.26016 11.7226H7.89541C7.89541 11.7226 7.99693 11.5464 8.04697 11.4289C8.43493 10.5812 8.83449 9.37818 9.12166 8.58921C9.28482 8.09102 9.28482 7.85607 9.27322 7.73859C9.25944 7.65157 9.23406 7.56238 9.22245 7.5341L10.9723 7.27086L11.5858 10.0243C11.6757 10.3738 11.7859 10.8133 11.8867 11.1381C11.9121 10.9032 11.9229 10.64 11.9375 10.405V10.3463L11.9628 9.87636C11.9882 9.43692 11.9744 8.93946 11.8867 8.58921L13.1245 8.53047C13.1499 8.5892 13.1753 8.73496 13.1891 8.76542C13.5886 8.38471 13.9121 8.38471 14.213 8.44055L14.2014 8.70668C14.2746 8.64794 14.3508 8.5892 14.4378 8.53047C14.7641 8.35425 15.1383 8.32597 15.3385 8.32597C15.7155 8.32597 15.9773 8.38181 16.1659 8.47173L16.1405 9.40864C15.891 9.26505 15.5785 9.14758 15.3537 9.14758Z" fill="#EF0107"/>
<path d="M18.8781 19.1062C18.881 19.943 18.1972 20.6225 17.356 20.6254C16.512 20.6254 15.8281 19.9459 15.8281 19.1091V19.1062C15.8281 18.2693 16.5091 17.5899 17.3531 17.5899C18.1943 17.587 18.8781 18.2672 18.8781 19.1033C18.8781 19.1062 18.8781 19.1062 18.8781 19.1062Z" fill="white"/>
<path d="M18.6974 19.1053C18.6974 19.8442 18.0977 20.4425 17.3552 20.4425C16.6126 20.4425 16.0107 19.8464 16.0078 19.1082V19.1053C16.0078 18.3663 16.6097 17.7681 17.3523 17.7681C18.0948 17.7681 18.6974 18.3641 18.6974 19.1024V19.1053Z" fill="#9C824A"/>
<path d="M18.0299 19.1052C18.0299 19.483 17.7202 19.7904 17.3381 19.7933C16.9581 19.7933 16.6484 19.4859 16.6484 19.1052C16.6484 18.7245 16.9581 18.4199 17.3381 18.417C17.7209 18.417 18.0299 18.7245 18.0299 19.1052Z" fill="white"/>
<path d="M17.8537 19.1051C17.8537 19.3792 17.6311 19.6033 17.3526 19.6033C17.0771 19.6033 16.8516 19.3821 16.8516 19.1051C16.8516 18.831 17.0764 18.6069 17.3526 18.6069C17.6282 18.6069 17.8537 18.8281 17.8537 19.1051Z" fill="#9C824A"/>
<path d="M16.8125 15.3877H17.8531V17.8025H16.8125V15.3877Z" fill="white"/>
<path d="M16.9922 15.0396H17.7094V18.1092H16.9922V15.0396Z" fill="#9C824A"/>
<path d="M20.24 16.749L20.8085 17.6163L18.7715 18.9318L18.2059 18.0637L20.24 16.749ZM15.8796 19.3009L16.4365 20.174L14.385 21.4662L13.8281 20.5902L15.8796 19.3009Z" fill="white"/>
<path d="M16.2305 19.25L16.6156 19.8548L14.0108 21.4973L13.625 20.8925L16.2305 19.25Z" fill="#9C824A"/>
<path d="M13.9219 17.4176L14.4933 16.5532L16.5245 17.8737L15.953 18.741L13.9219 17.4176Z" fill="white"/>
<path d="M13.7266 17.1205L14.1211 16.5215L16.7004 18.2031L16.3067 18.8021L13.7266 17.1205Z" fill="#9C824A"/>
<path d="M18.2656 20.17L18.8363 19.3027L20.8682 20.6262L20.2968 21.4934L18.2656 20.17Z" fill="white"/>
<path d="M18.0731 19.8747L18.4669 19.2757L21.047 20.9573L20.6533 21.5534L18.0731 19.8747ZM20.6279 16.6963L21.0187 17.2945L18.4306 18.9682L18.0391 18.3663L20.6279 16.6963Z" fill="#9C824A"/>
<path d="M16.8125 20.4907H17.8531V22.9055H16.8125V20.4907Z" fill="white"/>
<path d="M16.9922 20.1904H17.7094V23.2571H16.9922V20.1904Z" fill="#9C824A"/>
</svg>
