<svg width="38" height="38" viewBox="0 0 38 38" fill="none" xmlns="http://www.w3.org/2000/svg">
<path d="M34.2947 18.4779C30.4582 14.3282 29.9884 10.1785 32.9637 6.26369L33.042 6.10709L31.5544 4.07139L31.3978 4.14969C28.814 5.08924 25.7604 4.77606 23.6464 3.21013L23.4898 3.13184L23.3332 3.21013C20.2014 5.40243 17.2261 5.40243 14.1726 3.21013L14.0943 3.13184L13.9377 3.21013C11.5888 4.93265 8.22207 5.01095 6.18637 4.14969L6.10807 4.07139L4.54215 6.18539L4.62044 6.26369C7.5957 10.2568 7.20422 14.2499 3.2894 18.4779L3.13281 18.6345L4.69874 20.2004C4.54215 27.5603 8.53525 31.8666 16.4432 32.4929L18.7921 34.4503L21.2192 32.4929C22.9418 32.4146 26.1519 31.9449 28.814 29.9092C31.6326 27.7169 33.042 24.5067 32.9637 20.2004L34.5296 18.6345L34.2947 18.4779Z" fill="black"/>
<path d="M30.6071 20.2788H7.03997C6.72679 23.0192 7.35316 25.2115 8.76249 26.934C10.4067 28.8914 13.2254 30.0658 16.7487 30.379H20.8201C24.2652 30.2224 27.0055 29.048 28.728 27.0906C30.2157 25.2898 30.842 23.0192 30.6071 20.2788ZM22.3077 25.1332C22.3077 26.0727 21.9163 26.934 21.2899 27.5604C20.6635 28.1867 19.724 28.5782 18.8627 28.5782C16.9053 28.5782 15.4177 27.0123 15.4177 25.1332C15.4177 24.1936 15.8092 23.3324 16.4355 22.706C17.0619 22.0796 18.0015 21.6881 18.8627 21.6881C19.8023 21.6881 20.6635 22.0796 21.2899 22.706C21.9946 23.4107 22.3077 24.2719 22.3077 25.1332Z" fill="#0D47A1"/>
<path d="M22.713 18.165H21.8517V18.8697H22.713C23.0262 18.7914 23.1045 18.3216 22.713 18.165ZM22.6347 17.0688H21.7734V17.6169H22.6347C22.8696 17.5386 23.0262 17.1471 22.6347 17.0688Z" fill="#FFC107"/>
<path d="M27.5696 28.1096C26.6301 28.8143 25.4556 29.4406 24.1246 29.7538H24.0463V20.28H27.5696V28.1096ZM13.5546 29.7538V20.28H10.0312V28.1096C11.0491 28.8143 12.2235 29.3623 13.5546 29.7538ZM18.8787 28.5794C18.2524 28.5794 17.626 28.4228 17.0779 28.1096V30.3019H20.6012V28.1879C20.0532 28.4228 19.5051 28.5794 18.8787 28.5794ZM18.8787 21.6893C19.5051 21.6893 20.0532 21.8459 20.6012 22.1591V20.2017H17.0779V22.1591C17.626 21.9242 18.1741 21.6893 18.8787 21.6893Z" fill="#C62828"/>
<path d="M16.6033 23.177C16.3684 24.1166 16.3684 25.1344 16.9948 25.7608C16.7599 26.074 16.525 26.1523 16.0552 26.2306C15.8986 25.9174 15.8203 25.5259 15.8203 25.1344C15.8203 24.4298 16.0552 23.7251 16.6033 23.177ZM16.9165 27.4833C18.639 27.3267 19.6568 26.7787 20.0483 25.8391C19.97 25.4476 19.7351 25.2127 19.5785 25.1344C19.4219 25.0561 19.2653 25.1344 19.0305 25.2127C18.9522 25.4476 18.639 25.9957 18.1692 26.1523C18.0909 26.1523 18.0126 26.2306 17.856 26.2306C17.6994 26.2306 17.4645 26.1523 17.3079 26.074C17.3079 26.074 17.3079 26.074 17.2296 25.9957C16.9165 26.3872 16.6033 26.5438 16.2118 26.6221C16.4467 27.0135 16.6816 27.2484 16.9165 27.4833ZM18.2475 22.2375C17.856 22.3158 17.4645 22.4724 17.1513 22.7073C16.7599 24.1949 16.6816 25.2127 17.5428 25.7608C17.6994 25.8391 17.856 25.8391 18.0126 25.8391C18.2475 25.7608 18.4824 25.4476 18.5607 25.291C18.1692 24.9778 17.6994 24.4298 18.4041 23.4119C18.1692 22.8638 18.1692 22.4724 18.2475 22.2375ZM21.8491 24.5864C21.7708 24.0383 21.4576 23.4902 20.9879 23.0204C20.4398 22.4724 19.6568 22.1592 18.8739 22.1592C18.5607 22.3941 18.5607 22.7073 18.8739 23.0987C20.0483 22.8638 21.1445 23.7251 21.8491 24.5864ZM21.8491 25.3693C21.3793 24.5864 20.2049 23.177 18.8739 23.4902C18.2475 24.1949 18.5607 24.5081 18.8739 24.8213C19.2653 24.5864 19.5785 24.6647 19.8134 24.743C20.1266 24.8995 20.3615 25.1344 20.5181 25.6042C20.753 25.5259 20.9879 25.6042 21.2228 25.6825C21.4576 25.7608 21.6142 25.9174 21.7708 26.074C21.7708 25.9174 21.8491 25.6825 21.8491 25.3693ZM18.8739 28.188C19.6568 28.188 20.4398 27.8748 20.9879 27.3267C21.2228 27.0918 21.3793 26.9353 21.4576 26.6221C21.3793 26.3872 21.2228 26.2306 20.9879 26.1523C20.8313 26.074 20.6747 26.074 20.5181 26.074C20.0483 27.0135 19.1088 27.6399 17.5428 27.8748C17.9343 28.0314 18.4041 28.188 18.8739 28.188Z" fill="#FFC107"/>
<path d="M33.3606 18.6355C29.759 14.7207 29.3675 9.94466 32.1078 6.18644L31.3249 5.01199H31.2466C28.6628 5.87325 25.531 5.48177 23.6518 4.07244L23.5736 3.99414L23.4953 4.15073C20.52 6.26473 17.075 6.26473 14.178 4.15073L14.0997 4.07244L14.0214 4.15073C11.8291 5.71666 8.38408 5.87325 6.50497 5.09029H6.42667L5.48712 6.18644L5.56541 6.26473C9.71511 11.9804 5.64371 17.1479 4.31267 18.6355L4.23438 18.7138L5.48712 20.0449C5.25223 23.4116 6.03519 26.152 7.836 28.1877C9.79341 30.38 12.847 31.6327 16.6835 31.8676L18.7192 33.5901L20.7549 31.8676C22.0859 31.8676 26.6271 31.4761 29.6024 28.266C31.4815 26.2303 32.2644 23.4899 31.9513 20.0449L33.3606 18.6355ZM7.36623 15.7386C8.77556 12.5284 8.61897 9.39658 6.97474 6.65621L6.73986 6.26473L7.20963 6.34303C9.95 6.73451 11.9857 6.42132 13.9431 5.40347L14.0997 5.32518L14.178 5.40347C17.2316 7.12599 20.2851 7.12599 23.417 5.40347L23.4953 5.32518L23.5736 5.40347C25.2178 6.42132 27.0186 6.73451 30.2287 6.42132H30.6202L30.5419 6.73451C28.8977 9.47488 28.8194 12.685 30.2287 15.7386L30.3853 16.0518H7.36623V15.7386ZM22.8689 19.4968H21.1464V16.4432H22.7906C23.6518 16.5998 23.7301 17.4611 23.2604 17.8526C24.1216 18.5572 23.417 19.4185 22.8689 19.4968ZM18.0145 18.4789C18.1711 18.7138 18.406 18.8704 18.6409 18.8704C18.8758 18.8704 19.0324 18.7138 19.1107 18.4789L19.737 18.7921C19.5804 19.2619 19.1107 19.5751 18.6409 19.5751C18.5626 19.5751 18.4843 19.5751 18.406 19.5751C18.0145 19.4968 17.623 19.2619 17.3881 18.9487C17.075 18.4789 17.075 17.7743 17.3099 17.0696C17.5447 16.5998 17.9362 16.3649 18.4843 16.3649C19.0324 16.3649 19.5021 16.6781 19.737 17.0696L19.1107 17.3828C18.9541 17.1479 18.7192 17.0696 18.5626 17.0696C18.3277 17.0696 18.1711 17.2262 18.0145 17.3828C17.7796 17.8526 17.8579 18.2441 18.0145 18.4789ZM15.2741 17.5394V18.1658H14.3346V19.4185H13.7082V18.1658V17.5394V16.4432H14.3346H15.9788V17.0696H14.4129V17.5394H15.2741ZM29.0543 27.3264C27.2535 29.3621 24.4348 30.5366 20.8332 30.7715H16.7618C13.0036 30.5366 10.1849 29.2838 8.38408 27.1698C6.81815 25.369 6.27008 22.9418 6.58326 20.0449V19.81H30.9334V20.0449C31.3249 23.0201 30.6202 25.4473 29.0543 27.3264Z" fill="#FFC107"/>
<path d="M18.5552 15.6598V7.12547C17.0676 7.12547 15.5017 6.65569 14.014 5.79443C12.1349 6.81228 10.0992 7.12547 7.59375 6.81228C9.00308 9.47436 9.15968 12.5279 7.90694 15.5815L18.5552 15.6598Z" fill="white"/>
<path d="M29.899 6.8909C27.002 7.12579 25.1229 6.8126 23.4787 5.87305C21.9911 6.73431 20.4251 7.12579 18.9375 7.20408V15.6601H29.5075C28.3331 12.6848 28.4896 9.55297 29.899 6.8909Z" fill="#FFEB3B"/>
<path d="M28.34 15.6598H27.0873V6.89058C27.4788 6.89058 27.8703 6.96888 28.34 6.96888V15.6598ZM21.2151 6.81228C20.7453 6.89058 20.3538 7.04717 19.9623 7.04717V15.6598H21.2151V6.81228ZM25.9911 6.73399C25.5214 6.65569 25.1299 6.4991 24.7384 6.4208V15.6598H25.9911V6.73399ZM23.564 5.87273C23.0942 6.02932 22.7027 6.26421 22.3112 6.4208V15.6598H23.564V5.87273ZM18.553 9.47436H15.2646V6.4208C14.8731 6.26421 14.4816 6.02932 14.0901 5.79443C13.3854 6.18591 12.6808 6.4208 11.8978 6.65569V9.39606H8.60938C8.84426 10.4922 8.84426 11.5884 8.68767 12.7628H11.8978V15.6598H15.2646V12.8411H18.553V9.47436Z" fill="#FF1744"/>
</svg>
