<svg width="14" height="10" viewBox="0 0 14 10" fill="none" xmlns="http://www.w3.org/2000/svg">
<path d="M11.606 0.703125H1.45759C1.07308 0.703125 0.704328 0.846517 0.432442 1.10176C0.160556 1.357 0.0078125 1.70318 0.0078125 2.06414L0.0078125 8.1887C0.0078125 8.54967 0.160556 8.89585 0.432442 9.15109C0.704328 9.40633 1.07308 9.54972 1.45759 9.54972H11.606C11.9905 9.54972 12.3593 9.40633 12.6312 9.15109C12.9031 8.89585 13.0558 8.54967 13.0558 8.1887V2.06414C13.0558 1.70318 12.9031 1.357 12.6312 1.10176C12.3593 0.846517 11.9905 0.703125 11.606 0.703125Z" fill="#EEEEEE"/>
<path d="M7.61914 0.703125H5.44447V4.10566H0.0078125V6.14718H5.44447V9.54972H7.61914V6.14718H13.0558V4.10566H7.61914V0.703125Z" fill="#CE1124"/>
</svg>
