<svg width="416" height="581" viewBox="0 0 416 581" fill="none" xmlns="http://www.w3.org/2000/svg">
<rect x="1.81735" y="0.606414" width="413.574" height="579.732" rx="5.45773" fill="#20592C" stroke="white" stroke-width="1.21283"/>
<rect x="131.591" y="0.606414" width="150.391" height="41.2361" stroke="white" stroke-width="1.21283"/>
<rect x="131.591" y="0.606414" width="150.391" height="41.2361" stroke="white" stroke-width="1.21283"/>
<rect x="131.591" y="539.103" width="150.391" height="41.2361" stroke="white" stroke-width="1.21283"/>
<rect x="131.591" y="539.103" width="150.391" height="41.2361" stroke="white" stroke-width="1.21283"/>
<circle cx="130.381" cy="141.295" r="16.3732" fill="white"/>
<circle cx="206.787" cy="21.2247" r="16.3732" fill="white"/>
<circle cx="41.8419" cy="72.1632" r="16.3732" fill="white"/>
<circle cx="281.983" cy="146.146" r="16.3732" fill="white"/>
<circle cx="206.787" cy="157.061" r="16.3732" fill="white"/>
<circle cx="104.912" cy="216.49" r="16.3732" fill="white"/>
<circle cx="308.662" cy="216.49" r="16.3732" fill="white"/>
<path d="M271.069 277.737C271.069 310.866 242.861 337.772 208.002 337.772C173.142 337.772 144.935 310.866 144.935 277.737C144.935 244.608 173.142 217.702 208.002 217.702C242.861 217.702 271.069 244.608 271.069 277.737Z" stroke="white" stroke-width="1.21283"/>
<circle cx="207.998" cy="237.108" r="16.3732" fill="white"/>
<circle cx="266.217" cy="72.1632" r="16.3732" fill="white"/>
<circle cx="147.358" cy="72.1632" r="16.3732" fill="white"/>
<circle cx="385.076" cy="72.1632" r="16.3732" fill="white"/>
<circle cx="17.586" cy="17.586" r="17.586" transform="matrix(1 0 0 -1 104.305 439.044)" fill="#216E80"/>
<ellipse cx="17.586" cy="18.1924" rx="17.586" ry="18.1924" transform="matrix(1 0 0 -1 186.773 573.668)" fill="#216E80"/>
<circle cx="17.586" cy="17.586" r="17.586" transform="matrix(1 0 0 -1 8.49219 516.664)" fill="#216E80"/>
<ellipse cx="17.586" cy="18.7988" rx="17.586" ry="18.7988" transform="matrix(1 0 0 -1 268.031 435.405)" fill="#216E80"/>
<ellipse cx="17.586" cy="18.7988" rx="17.586" ry="18.7988" transform="matrix(1 0 0 -1 186.773 423.277)" fill="#216E80"/>
<ellipse cx="17.586" cy="18.1924" rx="17.586" ry="18.1924" transform="matrix(1 0 0 -1 76.4062 356.571)" fill="#216E80"/>
<ellipse cx="17.586" cy="18.1924" rx="17.586" ry="18.1924" transform="matrix(1 0 0 -1 297.141 356.571)" fill="#216E80"/>
<ellipse cx="17.586" cy="18.1924" rx="17.586" ry="18.1924" transform="matrix(1 0 0 -1 187.992 333.527)" fill="#216E80"/>
<circle cx="17.586" cy="17.586" r="17.586" transform="matrix(1 0 0 -1 251.055 516.664)" fill="#216E80"/>
<circle cx="17.586" cy="17.586" r="17.586" transform="matrix(1 0 0 -1 122.492 516.664)" fill="#216E80"/>
<circle cx="17.586" cy="17.586" r="17.586" transform="matrix(1 0 0 -1 379.617 516.664)" fill="#216E80"/>
<line y1="278.344" x2="414.787" y2="278.344" stroke="white" stroke-width="1.21283"/>
</svg>
